HIERARCHY
ROOT reference
{
  OFFSET 0 0 0
  CHANNELS 6 Xposition Yposition Zposition Zrotation Xrotation Yrotation
  JOINT Hips
  {
    OFFSET -9.48665 82.8606 81.0172
    CHANNELS 6 Xposition Yposition Zposition Zrotation Xrotation Yrotation
    JOINT Spine
    {
      OFFSET 0 7.52385 0
      CHANNELS 6 Xposition Yposition Zposition Zrotation Xrotation Yrotation
      JOINT Spine1
      {
        OFFSET 0 21.7843 0
        CHANNELS 6 Xposition Yposition Zposition Zrotation Xrotation Yrotation
        JOINT Neck
        {
          OFFSET 0 21.6948 1.97225
          CHANNELS 6 Xposition Yposition Zposition Zrotation Xrotation Yrotation
          JOINT Head
          {
            OFFSET 0 12.8456 -1.83509
            CHANNELS 6 Xposition Yposition Zposition Zrotation Xrotation Yrotation
            End Site
            {
              OFFSET 0 22.9386 0
            }
          }
        }
        JOINT LeftShoulder
        {
          OFFSET 3.65748 19.7052 -0.211895
          CHANNELS 6 Xposition Yposition Zposition Zrotation Xrotation Yrotation
          JOINT LeftArm
          {
            OFFSET 11.1953 0 0
            CHANNELS 6 Xposition Yposition Zposition Zrotation Xrotation Yrotation
            JOINT LeftForeArm
            {
              OFFSET 29.6607 0 0
              CHANNELS 6 Xposition Yposition Zposition Zrotation Xrotation Yrotation
              JOINT LeftHand
              {
                OFFSET 23.3476 0 0
                CHANNELS 6 Xposition Yposition Zposition Zrotation Xrotation Yrotation
                End Site
                {
                  OFFSET 13.7631 0 0
                }
              }
            }
          }
        }
        JOINT RightShoulder
        {
          OFFSET -3.68053 19.7052 -0.211895
          CHANNELS 6 Xposition Yposition Zposition Zrotation Xrotation Yrotation
          JOINT RightArm
          {
            OFFSET -11.1953 0 0
            CHANNELS 6 Xposition Yposition Zposition Zrotation Xrotation Yrotation
            JOINT RightForeArm
            {
              OFFSET -29.6607 0 0
              CHANNELS 6 Xposition Yposition Zposition Zrotation Xrotation Yrotation
              JOINT RightHand
              {
                OFFSET -23.3476 0 0
                CHANNELS 6 Xposition Yposition Zposition Zrotation Xrotation Yrotation
                End Site
                {
                  OFFSET -13.7631 0 0
                }
              }
            }
          }
        }
      }
    }
    JOINT LeftUpLeg
    {
      OFFSET 9.17543 0 0
      CHANNELS 6 Xposition Yposition Zposition Zrotation Xrotation Yrotation
      JOINT LeftLeg
      {
        OFFSET 0 -39.1216 0
        CHANNELS 6 Xposition Yposition Zposition Zrotation Xrotation Yrotation
        JOINT LeftFoot
        {
          OFFSET 0 -35.3569 0
          CHANNELS 6 Xposition Yposition Zposition Zrotation Xrotation Yrotation
          JOINT LeftToeBase
          {
            OFFSET 0 -5.96403 13.7631
            CHANNELS 6 Xposition Yposition Zposition Zrotation Xrotation Yrotation
            End Site
            {
              OFFSET 0 0 3.67017
            }
          }
        }
      }
    }
    JOINT RightUpLeg
    {
      OFFSET -9.17543 0 0
      CHANNELS 6 Xposition Yposition Zposition Zrotation Xrotation Yrotation
      JOINT RightLeg
      {
        OFFSET 0 -39.1216 0
        CHANNELS 6 Xposition Yposition Zposition Zrotation Xrotation Yrotation
        JOINT RightFoot
        {
          OFFSET 0 -35.3569 0
          CHANNELS 6 Xposition Yposition Zposition Zrotation Xrotation Yrotation
          JOINT RightToeBase
          {
            OFFSET 0 -5.96403 13.7631
            CHANNELS 6 Xposition Yposition Zposition Zrotation Xrotation Yrotation
            End Site
            {
              OFFSET 0 0 3.67017
            }
          }
        }
      }
    }
  }
}
MOTION
Frames:	6
Frame Time:	0.004
0 0 0 0 0 -0 -6.62535 74.3933 -217.367 -0.117535 -8.8176 2.53518 8.88178e-016 7.52385 -2.84217e-014 0.165779 4.44676 -0.676709 0 21.7843 2.84217e-014 2.71308 -2.29138 -0.616361 -8.88178e-016 21.6948 1.97225 -2.10227 11.9603 -0.152229 0 12.8456 -1.83509 -1.72007 6.53749 -0.229266 3.65748 19.7052 -0.211895 17.37 -3.13783 -4.73785 11.1953 2.84217e-014 0 -22.0702 9.73047 -2.71696 29.6607 -1.42109e-014 2.84217e-014 2.23201 -2.86197 -2.38706 23.3476 2.84217e-014 0 1.28639 -2.85044 -3.11274 -3.68053 19.7052 -0.211895 -15.85 0.677751 -0.615401 -11.1953 0 0 26.5758 8.24451 9.40252 -29.6607 1.42109e-014 -2.84217e-014 -3.43604 -3.18532 4.37854 -23.3476 0 0 -0.0861428 -3.05483 2.05702 9.17543 0 -2.84217e-014 7.78932 11.7611 -0.656054 3.55271e-015 -39.1216 2.84217e-014 -1.28843 3.80083 5.05107 0 -35.3569 0 -2.80951 -10.3634 10.1739 0 -5.96403 13.7631 -1.98785e-016 0 -3.18055e-015 -9.17543 0 0 -7.29681 10.5625 4.6926 -3.55271e-015 -39.1216 0 2.49458 4.56011 -2.23781 3.55271e-015 -35.3569 0 3.17013 -11.411 -21.7814 0 -5.96403 13.7631 0 0 -0 
0 0 0 0 0 -0 -6.62535 74.3933 -217.367 -0.117535 -8.8176 2.53518 8.88178e-016 7.52385 -2.84217e-014 0.165716 4.44146 -0.676704 0 21.7843 2.84217e-014 2.69958 -2.28688 -0.616359 8.88178e-016 21.6948 1.97225 -2.08916 11.9798 -0.15224 0 12.8456 -1.83509 -1.73986 6.54462 -0.22927 3.65748 19.7052 -0.211895 17.375 -3.13788 -4.72655 11.1953 -2.84217e-014 0 -22.0705 9.72468 -2.71691 29.6607 -1.42109e-014 0 2.23144 -2.87817 -2.39808 23.3476 0 0 1.29963 -2.86701 -3.13254 -3.68053 19.7052 -0.211895 -15.8395 0.677751 -0.615401 -11.1953 2.84217e-014 -2.84217e-014 26.5869 8.24451 9.40252 -29.6607 0 -2.84217e-014 -3.44885 -3.18529 4.38492 -23.3476 -2.84217e-014 -2.84217e-014 -0.0675363 -3.05483 2.05702 9.17543 0 -2.84217e-014 7.78944 11.771 -0.656078 0 -39.1216 0 -1.29033 3.80066 5.07978 7.10543e-015 -35.3569 0 -2.81196 -10.3612 10.1627 0 -5.96403 13.7631 7.95139e-016 7.95139e-016 -3.18055e-015 -9.17543 0 0 -7.29681 10.5625 4.6926 -3.55271e-015 -39.1216 0 2.49491 4.54518 -2.24938 1.77636e-015 -35.3569 0 3.17536 -11.4128 -21.7571 0 -5.96403 13.7631 1.98785e-016 7.95139e-016 9.54166e-015 
0 0 0 0 0 -0 -6.62535 74.3933 -217.367 -0.117535 -8.8176 2.53518 8.88178e-016 7.52385 -2.84217e-014 0.165649 4.4358 -0.676699 8.88178e-016 21.7843 0 2.71496 -2.27774 -0.616355 0 21.6948 1.97225 -2.10155 11.9796 -0.15224 8.88178e-016 12.8456 -1.83509 -1.74423 6.54732 -0.229271 3.65748 19.7052 -0.211895 17.3595 -3.13794 -4.71284 11.1953 2.84217e-014 -2.84217e-014 -22.0708 9.71804 -2.71686 29.6607 -1.42109e-014 0 2.24111 -2.8883 -2.39993 23.3476 0 0 1.29837 -2.87686 -3.13035 -3.68053 19.7052 -0.211895 -15.8485 0.677751 -0.615401 -11.1953 -2.84217e-014 0 26.595 8.24448 9.40351 -29.6607 1.42109e-014 -2.84217e-014 -3.45001 -3.18528 4.38837 -23.3476 2.84217e-014 0 -0.086837 -3.05483 2.05702 9.17543 0 -2.84217e-014 7.78696 11.77 -0.644002 0 -39.1216 -2.84217e-014 -1.28897 3.80078 5.05923 0 -35.3569 0 -2.80771 -10.3784 10.1694 0 -5.96403 13.7631 -5.96354e-016 3.97569e-016 -0 -9.17543 0 0 -7.29681 10.5625 4.6926 -3.55271e-015 -39.1216 0 2.4952 4.56172 -2.24486 -5.32907e-015 -35.3569 0 3.14809 -11.4228 -21.7628 -1.42109e-014 -5.96403 13.7631 -8.82781e-032 -7.95139e-016 -6.36111e-015 
0 0 0 0 0 -0 -6.62535 74.3933 -217.367 -0.117857 -8.81761 2.53308 0 7.52385 0 0.168354 4.4245 -0.675179 8.88178e-016 21.7843 0 2.70527 -2.27402 -0.615052 0 21.6948 1.97225 -2.07897 12.0064 -0.152255 8.88178e-016 12.8456 -1.83509 -1.76565 6.53433 -0.229265 3.65748 19.7052 -0.211895 17.3672 -3.15021 -4.71932 11.1953 0 0 -22.0756 9.70817 -2.71678 29.6607 1.42109e-014 0 2.23474 -2.88531 -2.38884 23.3476 0 0 1.30703 -2.87464 -3.1456 -3.68053 19.7052 -0.211895 -15.8408 0.677751 -0.615401 -11.1953 0 2.84217e-014 26.6043 8.24481 9.38946 -29.6607 -1.42109e-014 0 -3.4605 -3.18592 4.39742 -23.3476 0 -2.84217e-014 -0.071256 -3.05452 2.05901 9.17543 0 -2.84217e-014 7.7816 11.7705 -0.633114 0 -39.1216 0 -1.2898 3.79987 5.07288 0 -35.3569 0 -2.81458 -10.3647 10.1453 -1.42109e-014 -5.96403 13.7631 -0 0 6.36111e-015 -9.17543 0 -2.84217e-014 -7.29681 10.5625 4.6926 -3.55271e-015 -39.1216 0 2.49388 4.55811 -2.23008 -5.32907e-015 -35.3569 0 3.18513 -11.4238 -21.7722 0 -5.96403 13.7631 -3.97569e-016 -7.95139e-016 3.18055e-015 
0 0 0 0 0 -0 -6.62535 74.3928 -217.366 -0.112824 -8.81763 2.53076 -1.77636e-015 7.52385 0 0.175362 4.421 -0.676687 0 21.7843 2.84217e-014 2.67993 -2.27109 -0.616841 0 21.6948 1.97225 -2.06766 12.0035 -0.151867 0 12.8456 -1.83509 -1.76549 6.55605 -0.228701 3.65748 19.7052 -0.211895 17.3874 -3.14135 -4.72024 11.1953 -2.84217e-014 -2.84217e-014 -22.0838 9.71175 -2.71434 29.6607 0 2.84217e-014 2.23841 -2.89645 -2.39588 23.3476 0 0 1.32548 -2.88593 -3.13401 -3.68053 19.7052 -0.211895 -15.8214 0.681769 -0.626523 -11.1953 0 -2.84217e-014 26.6021 8.25527 9.39566 -29.6607 1.42109e-014 -2.84217e-014 -3.46113 -3.209 4.41146 -23.3476 -2.84217e-014 2.84217e-014 -0.103587 -3.07772 2.04549 9.17543 0 0 7.77452 11.771 -0.655224 0 -39.1216 2.84217e-014 -1.29052 3.79888 5.08499 0 -35.3569 0 -2.81767 -10.3663 10.1663 0 -5.96403 13.7631 -1.98785e-016 1.19271e-015 -9.54166e-015 -9.17543 1.42109e-014 0 -7.30599 10.5625 4.6926 -3.55271e-015 -39.1216 0 2.48933 4.55742 -2.17317 -5.32907e-015 -35.3569 -2.84217e-014 3.1804 -11.4399 -21.8147 1.42109e-014 -5.96403 13.7631 -7.95139e-016 0 -0 
0 0 0 0 0 -0 -6.62535 74.3922 -217.364 -0.112712 -8.81765 2.52722 -8.88178e-016 7.52385 -2.84217e-014 0.122699 4.47876 -0.704226 8.88178e-016 21.7843 -2.84217e-014 2.89296 -2.30618 -0.641264 -8.88178e-016 21.6948 1.97225 -2.40095 11.862 -0.114759 4.44089e-016 12.8456 -1.83509 -1.61285 6.68558 -0.158108 3.65748 19.7052 -0.211895 17.0658 -3.25176 -4.5666 11.1953 0 -2.84217e-014 -21.9578 9.86155 -2.70496 29.6607 -1.42109e-014 0 2.28576 -2.90627 -2.4415 23.3476 0 2.84217e-014 1.3281 -2.89388 -3.13026 -3.68053 19.7052 -0.211895 -15.9766 0.632487 -0.667293 -11.1953 0 0 26.6464 8.25753 9.47308 -29.6607 0 0 -3.49171 -3.18801 4.41608 -23.3476 0 -2.84217e-014 -0.11336 -3.05556 2.04777 9.17543 0 -5.68434e-014 7.76872 11.7716 -0.631857 0 -39.1216 0 -1.2885 3.79809 5.05571 -7.10543e-015 -35.3569 0 -2.83589 -10.3763 10.1638 0 -5.96403 13.7631 -1.98785e-016 -1.59028e-015 3.18055e-015 -9.17543 0 0 -7.30302 10.5624 4.70069 0 -39.1216 0 2.49385 4.55695 -2.23026 1.77636e-015 -35.3569 0 3.16168 -11.4285 -21.7667 0 -5.96403 13.7631 -1.98785e-016 -7.95139e-016 -3.18055e-015 
